<svg xmlns="http://www.w3.org/2000/svg" xmlns:xlink="http://www.w3.org/1999/xlink" width="500" zoomAndPan="magnify" viewBox="0 0 375 374.999991" height="500" preserveAspectRatio="xMidYMid meet" version="1.0"><defs><g/></defs><g fill="#000000" fill-opacity="1"><g transform="translate(43.659083, 180.385799)"><g><path d="M 39.375 -34.828125 C 39.394531 -30.648438 39.300781 -27.21875 39.09375 -24.53125 C 38.894531 -21.84375 38.554688 -19.34375 38.078125 -17.03125 C 36.171875 -7.695312 33.25 -0.925781 29.3125 3.28125 C 25.375 7.5 20.507812 9.015625 14.71875 7.828125 C 10.25 6.921875 7.207031 4.515625 5.59375 0.609375 C 3.976562 -3.296875 3.832031 -8.472656 5.15625 -14.921875 C 5.96875 -18.890625 7.15625 -22.921875 8.71875 -27.015625 C 10.289062 -31.109375 11.578125 -33.738281 12.578125 -34.90625 C 13.347656 -34.945312 14.273438 -34.925781 15.359375 -34.84375 C 16.453125 -34.757812 17.5 -34.613281 18.5 -34.40625 C 19.695312 -34.15625 20.710938 -33.863281 21.546875 -33.53125 C 22.390625 -33.207031 23.007812 -32.863281 23.40625 -32.5 C 22.226562 -29.5 21.1875 -26.472656 20.28125 -23.421875 C 19.375 -20.367188 18.632812 -17.457031 18.0625 -14.6875 C 17.113281 -10.0625 16.632812 -6.390625 16.625 -3.671875 C 16.625 -0.960938 17.101562 0.488281 18.0625 0.6875 C 19.25 0.925781 20.457031 -0.378906 21.6875 -3.234375 C 22.914062 -6.085938 24.101562 -10.3125 25.25 -15.90625 C 25.820312 -18.6875 26.234375 -21.675781 26.484375 -24.875 C 26.734375 -28.082031 26.8125 -31.5 26.71875 -35.125 C 28.351562 -35.488281 30.390625 -35.628906 32.828125 -35.546875 C 35.265625 -35.460938 37.445312 -35.222656 39.375 -34.828125 Z M 39.375 -34.828125 "/></g></g></g><g fill="#000000" fill-opacity="1"><g transform="translate(77.333978, 187.344181)"><g><path d="M 17.03125 -9.96875 C 16.820312 -8.5625 16.617188 -7.046875 16.421875 -5.421875 C 16.234375 -3.796875 15.816406 0.109375 15.171875 6.296875 C 13.421875 6.035156 11.660156 5.703125 9.890625 5.296875 C 8.117188 4.898438 6.570312 4.488281 5.25 4.0625 C 5.414062 -2.238281 5.75 -8.285156 6.25 -14.078125 C 6.75 -19.867188 7.398438 -25.472656 8.203125 -30.890625 C 8.378906 -32.097656 8.59375 -33.378906 8.84375 -34.734375 C 9.101562 -36.085938 9.441406 -37.625 9.859375 -39.34375 C 12.035156 -40.0625 14.617188 -40.519531 17.609375 -40.71875 C 20.597656 -40.914062 23.492188 -40.804688 26.296875 -40.390625 C 31.046875 -39.691406 34.566406 -38.144531 36.859375 -35.75 C 39.160156 -33.363281 40.050781 -30.382812 39.53125 -26.8125 C 38.882812 -22.4375 36.554688 -18.738281 32.546875 -15.71875 C 28.535156 -12.695312 23.363281 -10.78125 17.03125 -9.96875 Z M 27.171875 -26.484375 C 27.503906 -28.742188 27.316406 -30.519531 26.609375 -31.8125 C 25.910156 -33.113281 24.6875 -33.894531 22.9375 -34.15625 C 22.582031 -34.207031 22.316406 -34.242188 22.140625 -34.265625 C 21.972656 -34.296875 21.804688 -34.304688 21.640625 -34.296875 C 21.023438 -31.703125 20.429688 -29.015625 19.859375 -26.234375 C 19.285156 -23.453125 18.734375 -20.53125 18.203125 -17.46875 C 20.804688 -17.769531 22.847656 -18.664062 24.328125 -20.15625 C 25.816406 -21.644531 26.765625 -23.753906 27.171875 -26.484375 Z M 27.171875 -26.484375 "/></g></g></g><g fill="#000000" fill-opacity="1"><g transform="translate(112.824992, 192.382008)"><g/></g></g><g fill="#000000" fill-opacity="1"><g transform="translate(124.134602, 193.867608)"><g><path d="M 26.75 -11.96875 C 28.363281 -12.007812 30.050781 -11.796875 31.8125 -11.328125 C 33.570312 -10.859375 34.820312 -10.300781 35.5625 -9.65625 C 34.914062 -5.164062 33.019531 -1.785156 29.875 0.484375 C 26.738281 2.765625 22.597656 3.71875 17.453125 3.34375 C 12.578125 2.988281 8.878906 1.203125 6.359375 -2.015625 C 3.835938 -5.242188 2.78125 -9.640625 3.1875 -15.203125 C 3.707031 -22.359375 6.109375 -28.242188 10.390625 -32.859375 C 14.679688 -37.472656 19.804688 -39.566406 25.765625 -39.140625 C 29.410156 -38.867188 32.269531 -37.523438 34.34375 -35.109375 C 36.414062 -32.691406 37.484375 -29.445312 37.546875 -25.375 C 35.390625 -24.625 33.554688 -24.164062 32.046875 -24 C 30.535156 -23.84375 28.644531 -23.847656 26.375 -24.015625 C 26.5625 -26.554688 26.378906 -28.535156 25.828125 -29.953125 C 25.285156 -31.378906 24.425781 -32.132812 23.25 -32.21875 C 21.601562 -32.332031 20.113281 -30.921875 18.78125 -27.984375 C 17.457031 -25.046875 16.640625 -21.4375 16.328125 -17.15625 C 16.023438 -13 16.296875 -9.773438 17.140625 -7.484375 C 17.984375 -5.191406 19.328125 -3.976562 21.171875 -3.84375 C 23.054688 -3.707031 24.484375 -4.351562 25.453125 -5.78125 C 26.429688 -7.207031 26.863281 -9.269531 26.75 -11.96875 Z M 26.75 -11.96875 "/></g></g></g><g fill="#000000" fill-opacity="1"><g transform="translate(159.27263, 196.494748)"><g><path d="M 22.40625 -42.921875 C 27.132812 -42.847656 30.765625 -41.242188 33.296875 -38.109375 C 35.828125 -34.984375 37.046875 -30.585938 36.953125 -24.921875 C 36.898438 -21.847656 36.4375 -18.734375 35.5625 -15.578125 C 34.6875 -12.421875 33.5 -9.632812 32 -7.21875 C 30.132812 -4.332031 27.894531 -2.148438 25.28125 -0.671875 C 22.664062 0.796875 19.722656 1.503906 16.453125 1.453125 C 11.734375 1.378906 8.082031 -0.492188 5.5 -4.171875 C 2.914062 -7.859375 1.671875 -12.8125 1.765625 -19.03125 C 1.878906 -26.15625 3.84375 -31.941406 7.65625 -36.390625 C 11.46875 -40.835938 16.382812 -43.015625 22.40625 -42.921875 Z M 19.0625 -6.203125 C 20.832031 -6.171875 22.164062 -7.363281 23.0625 -9.78125 C 23.96875 -12.207031 24.46875 -16.234375 24.5625 -21.859375 C 24.632812 -26.703125 24.300781 -30.144531 23.5625 -32.1875 C 22.832031 -34.226562 21.5625 -35.257812 19.75 -35.28125 C 17.9375 -35.3125 16.523438 -34.035156 15.515625 -31.453125 C 14.515625 -28.867188 13.976562 -25.21875 13.90625 -20.5 C 13.832031 -16.007812 14.238281 -12.507812 15.125 -10 C 16.019531 -7.488281 17.332031 -6.222656 19.0625 -6.203125 Z M 19.0625 -6.203125 "/></g></g></g><g fill="#000000" fill-opacity="1"><g transform="translate(196.3208, 197.084899)"><g><path d="M 29.859375 -43.265625 C 30.890625 -39.210938 31.625 -35.851562 32.0625 -33.1875 C 32.507812 -30.53125 32.78125 -28.023438 32.875 -25.671875 C 33.257812 -16.140625 32.046875 -8.859375 29.234375 -3.828125 C 26.429688 1.203125 22.078125 3.835938 16.171875 4.078125 C 11.617188 4.253906 8.085938 2.644531 5.578125 -0.75 C 3.078125 -4.15625 1.695312 -9.140625 1.4375 -15.703125 C 1.269531 -19.753906 1.453125 -23.957031 1.984375 -28.3125 C 2.523438 -32.664062 3.140625 -35.53125 3.828125 -36.90625 C 4.578125 -37.132812 5.488281 -37.335938 6.5625 -37.515625 C 7.632812 -37.691406 8.679688 -37.800781 9.703125 -37.84375 C 10.921875 -37.894531 11.972656 -37.859375 12.859375 -37.734375 C 13.753906 -37.609375 14.441406 -37.421875 14.921875 -37.171875 C 14.492188 -33.960938 14.207031 -30.769531 14.0625 -27.59375 C 13.914062 -24.414062 13.898438 -21.410156 14.015625 -18.578125 C 14.203125 -13.859375 14.613281 -10.179688 15.25 -7.546875 C 15.894531 -4.921875 16.707031 -3.628906 17.6875 -3.671875 C 18.90625 -3.722656 19.769531 -5.28125 20.28125 -8.34375 C 20.789062 -11.40625 20.929688 -15.789062 20.703125 -21.5 C 20.585938 -24.332031 20.265625 -27.332031 19.734375 -30.5 C 19.210938 -33.664062 18.472656 -37.003906 17.515625 -40.515625 C 19.015625 -41.253906 20.953125 -41.878906 23.328125 -42.390625 C 25.710938 -42.898438 27.890625 -43.191406 29.859375 -43.265625 Z M 29.859375 -43.265625 "/></g></g></g><g fill="#000000" fill-opacity="1"><g transform="translate(230.685074, 195.764168)"><g><path d="M 37.53125 -6.21875 C 36.4375 -4.851562 35.054688 -3.59375 33.390625 -2.4375 C 31.722656 -1.289062 29.765625 -0.273438 27.515625 0.609375 C 24.429688 -5.054688 22.132812 -9.070312 20.625 -11.4375 C 19.113281 -13.800781 17.554688 -15.957031 15.953125 -17.90625 C 15.609375 -17.789062 15.347656 -17.691406 15.171875 -17.609375 C 15.003906 -17.535156 14.847656 -17.453125 14.703125 -17.359375 C 14.890625 -14.535156 15.03125 -11.773438 15.125 -9.078125 C 15.226562 -6.378906 15.285156 -3.707031 15.296875 -1.0625 C 13.535156 -0.894531 11.75 -0.789062 9.9375 -0.75 C 8.132812 -0.71875 6.53125 -0.753906 5.125 -0.859375 C 4.988281 -2.691406 4.882812 -4.0625 4.8125 -4.96875 C 4.75 -5.875 4.679688 -6.722656 4.609375 -7.515625 C 4.128906 -12.484375 3.460938 -17.648438 2.609375 -23.015625 C 1.765625 -28.390625 0.679688 -34.21875 -0.640625 -40.5 C 1.046875 -42.238281 3.164062 -43.6875 5.71875 -44.84375 C 8.28125 -46.007812 10.859375 -46.71875 13.453125 -46.96875 C 18.578125 -47.457031 22.632812 -46.738281 25.625 -44.8125 C 28.625 -42.882812 30.3125 -39.9375 30.6875 -35.96875 C 30.914062 -33.582031 30.503906 -31.289062 29.453125 -29.09375 C 28.398438 -26.894531 26.71875 -24.859375 24.40625 -22.984375 C 26.71875 -20.796875 28.941406 -18.34375 31.078125 -15.625 C 33.222656 -12.90625 35.375 -9.769531 37.53125 -6.21875 Z M 14.09375 -24.734375 L 14.125 -24.484375 C 15.894531 -25.367188 17.164062 -26.578125 17.9375 -28.109375 C 18.707031 -29.648438 18.984375 -31.535156 18.765625 -33.765625 C 18.554688 -35.960938 17.910156 -37.625 16.828125 -38.75 C 15.742188 -39.875 14.300781 -40.347656 12.5 -40.171875 L 12.265625 -40.140625 C 12.753906 -36.316406 13.132812 -33.28125 13.40625 -31.03125 C 13.675781 -28.78125 13.90625 -26.679688 14.09375 -24.734375 Z M 14.09375 -24.734375 "/></g></g></g><g fill="#000000" fill-opacity="1"><g transform="translate(266.874051, 192.254193)"><g><path d="M 25.25 -24.234375 C 26.332031 -23.109375 27.191406 -21.890625 27.828125 -20.578125 C 28.460938 -19.265625 28.90625 -17.8125 29.15625 -16.21875 C 29.757812 -12.207031 28.8125 -8.671875 26.3125 -5.609375 C 23.820312 -2.546875 20.472656 -0.703125 16.265625 -0.078125 C 11.640625 0.617188 7.566406 -0.222656 4.046875 -2.609375 C 0.523438 -4.992188 -1.53125 -8.15625 -2.125 -12.09375 C -0.96875 -12.90625 0.457031 -13.664062 2.15625 -14.375 C 3.863281 -15.09375 5.300781 -15.539062 6.46875 -15.71875 C 6.914062 -12.757812 7.828125 -10.457031 9.203125 -8.8125 C 10.578125 -7.175781 12.222656 -6.503906 14.140625 -6.796875 C 15.503906 -7.003906 16.492188 -7.539062 17.109375 -8.40625 C 17.734375 -9.269531 17.945312 -10.363281 17.75 -11.6875 C 17.582031 -12.8125 17.039062 -13.851562 16.125 -14.8125 C 15.207031 -15.769531 13.296875 -17.046875 10.390625 -18.640625 C 8.222656 -19.816406 6.601562 -20.78125 5.53125 -21.53125 C 4.46875 -22.289062 3.535156 -23.050781 2.734375 -23.8125 C 1.609375 -24.988281 0.703125 -26.253906 0.015625 -27.609375 C -0.660156 -28.960938 -1.125 -30.457031 -1.375 -32.09375 C -1.957031 -35.988281 -1.046875 -39.367188 1.359375 -42.234375 C 3.773438 -45.109375 7.242188 -46.890625 11.765625 -47.578125 C 15.765625 -48.171875 19.125 -47.6875 21.84375 -46.125 C 24.570312 -44.570312 26.613281 -41.960938 27.96875 -38.296875 C 26.9375 -37.390625 25.734375 -36.625 24.359375 -36 C 22.984375 -35.375 21.140625 -34.804688 18.828125 -34.296875 C 18.109375 -36.648438 17.257812 -38.289062 16.28125 -39.21875 C 15.3125 -40.15625 14.109375 -40.515625 12.671875 -40.296875 C 11.773438 -40.160156 11.101562 -39.769531 10.65625 -39.125 C 10.21875 -38.488281 10.070312 -37.703125 10.21875 -36.765625 C 10.40625 -35.472656 10.976562 -34.300781 11.9375 -33.25 C 12.894531 -32.207031 14.84375 -30.890625 17.78125 -29.296875 C 19.945312 -28.160156 21.539062 -27.226562 22.5625 -26.5 C 23.59375 -25.78125 24.488281 -25.023438 25.25 -24.234375 Z M 25.25 -24.234375 "/></g></g></g><g fill="#000000" fill-opacity="1"><g transform="translate(298.26452, 187.596729)"><g><path d="M 33.609375 -6.265625 C 32.554688 -5.679688 29.054688 -4.539062 23.109375 -2.84375 C 17.171875 -1.15625 12.179688 0.0976562 8.140625 0.921875 C 5.921875 -5.003906 3.578125 -11.972656 1.109375 -19.984375 C -1.347656 -28.003906 -3.171875 -34.726562 -4.359375 -40.15625 C 1.347656 -42.476562 6.335938 -44.328125 10.609375 -45.703125 C 14.890625 -47.085938 19.132812 -48.207031 23.34375 -49.0625 C 23.632812 -47.625 23.851562 -46.085938 24 -44.453125 C 24.15625 -42.828125 24.21875 -41.101562 24.1875 -39.28125 C 22.03125 -38.84375 19.800781 -38.347656 17.5 -37.796875 C 15.195312 -37.253906 12.8125 -36.648438 10.34375 -35.984375 C 10.445312 -35.117188 10.59375 -34.132812 10.78125 -33.03125 C 10.96875 -31.925781 11.269531 -30.265625 11.6875 -28.046875 C 13.53125 -29.035156 15.40625 -29.863281 17.3125 -30.53125 C 19.21875 -31.207031 21.191406 -31.753906 23.234375 -32.171875 C 23.816406 -30.890625 24.332031 -29.546875 24.78125 -28.140625 C 25.238281 -26.742188 25.664062 -25.082031 26.0625 -23.15625 C 23.851562 -22.707031 21.679688 -22.195312 19.546875 -21.625 C 17.421875 -21.050781 15.363281 -20.4375 13.375 -19.78125 C 13.769531 -18.0625 14.171875 -16.378906 14.578125 -14.734375 C 14.992188 -13.085938 15.429688 -11.53125 15.890625 -10.0625 C 17.003906 -10.289062 19.3125 -10.992188 22.8125 -12.171875 C 26.3125 -13.347656 28.929688 -14.296875 30.671875 -15.015625 C 31.140625 -14.265625 31.664062 -12.992188 32.25 -11.203125 C 32.84375 -9.421875 33.296875 -7.773438 33.609375 -6.265625 Z M 33.609375 -6.265625 "/></g></g></g><g fill="#000000" fill-opacity="1"><g transform="translate(114.327263, 219.767879)"><g><path d="M 7.671875 -11.78125 C 8.546875 -11.664062 9.289062 -11.441406 9.90625 -11.109375 C 10.53125 -10.773438 10.8125 -10.398438 10.75 -9.984375 C 10.695312 -9.578125 10.472656 -9.085938 10.078125 -8.515625 C 9.691406 -7.953125 9.390625 -7.6875 9.171875 -7.71875 C 9.109375 -7.71875 9.039062 -7.753906 8.96875 -7.828125 C 8.894531 -7.898438 8.722656 -7.992188 8.453125 -8.109375 C 8.191406 -8.234375 7.960938 -8.304688 7.765625 -8.328125 C 7.078125 -8.421875 6.488281 -8.25 6 -7.8125 C 5.519531 -7.382812 5.210938 -6.671875 5.078125 -5.671875 C 4.941406 -4.671875 5.054688 -3.898438 5.421875 -3.359375 C 5.796875 -2.816406 6.3125 -2.5 6.96875 -2.40625 C 7.238281 -2.375 7.546875 -2.375 7.890625 -2.40625 C 8.242188 -2.4375 8.5 -2.515625 8.65625 -2.640625 C 8.6875 -2.660156 8.738281 -2.664062 8.8125 -2.65625 C 8.882812 -2.644531 9 -2.492188 9.15625 -2.203125 C 9.3125 -1.910156 9.441406 -1.535156 9.546875 -1.078125 C 9.648438 -0.628906 9.6875 -0.285156 9.65625 -0.046875 C 9.59375 0.410156 9.191406 0.726562 8.453125 0.90625 C 7.710938 1.082031 6.859375 1.101562 5.890625 0.96875 C 4.316406 0.757812 3.097656 0.0390625 2.234375 -1.1875 C 1.378906 -2.425781 1.085938 -4.050781 1.359375 -6.0625 C 1.640625 -8.070312 2.375 -9.578125 3.5625 -10.578125 C 4.757812 -11.585938 6.128906 -11.988281 7.671875 -11.78125 Z M 7.671875 -11.78125 "/></g></g></g><g fill="#000000" fill-opacity="1"><g transform="translate(124.903431, 221.207471)"><g><path d="M 10.609375 0.890625 C 10.585938 1.085938 9.976562 1.117188 8.78125 0.984375 C 7.582031 0.859375 6.992188 0.695312 7.015625 0.5 L 7.484375 -3.59375 L 4.984375 -3.890625 L 4.515625 0.203125 C 4.492188 0.398438 3.882812 0.429688 2.6875 0.296875 C 1.488281 0.160156 0.898438 -0.00390625 0.921875 -0.203125 L 2.265625 -12.015625 C 2.285156 -12.265625 2.894531 -12.320312 4.09375 -12.1875 C 5.289062 -12.050781 5.878906 -11.859375 5.859375 -11.609375 L 5.375 -7.421875 L 7.875 -7.125 L 8.34375 -11.28125 C 8.363281 -11.445312 8.675781 -11.535156 9.28125 -11.546875 C 9.59375 -11.535156 9.890625 -11.515625 10.171875 -11.484375 L 11.09375 -11.34375 C 11.675781 -11.207031 11.957031 -11.054688 11.9375 -10.890625 Z M 10.609375 0.890625 "/></g></g></g><g fill="#000000" fill-opacity="1"><g transform="translate(136.998404, 222.566982)"><g><path d="M 9.28125 0.84375 C 8.25 0.757812 7.707031 0.546875 7.65625 0.203125 L 7.265625 -2.140625 L 4.421875 -2.390625 L 3.703125 -0.234375 C 3.597656 0.128906 3.015625 0.265625 1.953125 0.171875 C 1.378906 0.117188 0.957031 0.046875 0.6875 -0.046875 C 0.414062 -0.140625 0.28125 -0.203125 0.28125 -0.234375 L 4.515625 -12.046875 C 4.523438 -12.140625 5.347656 -12.113281 6.984375 -11.96875 C 8.617188 -11.820312 9.429688 -11.703125 9.421875 -11.609375 L 11.421875 0.78125 C 11.421875 0.863281 11.144531 0.898438 10.59375 0.890625 C 10.039062 0.890625 9.601562 0.875 9.28125 0.84375 Z M 5.0625 -4.625 L 6.9375 -4.453125 L 6.46875 -8.234375 L 6.359375 -8.234375 Z M 5.0625 -4.625 "/></g></g></g><g fill="#000000" fill-opacity="1"><g transform="translate(149.319796, 223.647375)"><g><path d="M 10.734375 0.296875 C 10.710938 0.546875 10.140625 0.632812 9.015625 0.5625 C 7.890625 0.488281 7.285156 0.359375 7.203125 0.171875 L 4.578125 -5.59375 L 4.21875 -0.03125 C 4.207031 0.175781 3.648438 0.242188 2.546875 0.171875 C 1.441406 0.109375 0.894531 -0.0234375 0.90625 -0.234375 L 1.671875 -12.203125 C 1.679688 -12.378906 2.160156 -12.441406 3.109375 -12.390625 C 3.484375 -12.359375 3.910156 -12.289062 4.390625 -12.1875 C 4.878906 -12.09375 5.171875 -11.957031 5.265625 -11.78125 L 7.796875 -6.09375 L 8.15625 -11.703125 C 8.164062 -11.929688 8.722656 -12.007812 9.828125 -11.9375 C 10.941406 -11.863281 11.492188 -11.710938 11.484375 -11.484375 Z M 10.734375 0.296875 "/></g></g></g><g fill="#000000" fill-opacity="1"><g transform="translate(161.535058, 224.416657)"><g><path d="M 7.6875 -3.453125 L 7.8125 -5.890625 C 7.8125 -6.054688 7.988281 -6.15625 8.34375 -6.1875 C 8.695312 -6.226562 8.984375 -6.242188 9.203125 -6.234375 L 9.90625 -6.15625 C 10.34375 -6.070312 10.5625 -5.941406 10.5625 -5.765625 L 10.25 -0.15625 C 10.007812 0.0078125 9.523438 0.15625 8.796875 0.28125 C 8.078125 0.414062 7.253906 0.460938 6.328125 0.421875 C 4.597656 0.359375 3.21875 -0.253906 2.1875 -1.421875 C 1.164062 -2.585938 0.695312 -4.257812 0.78125 -6.4375 C 0.863281 -8.289062 1.445312 -9.769531 2.53125 -10.875 C 3.613281 -11.988281 5.078125 -12.507812 6.921875 -12.4375 C 7.753906 -12.394531 8.503906 -12.28125 9.171875 -12.09375 C 9.835938 -11.90625 10.289062 -11.671875 10.53125 -11.390625 C 10.539062 -11.296875 10.539062 -11.113281 10.53125 -10.84375 C 10.519531 -10.582031 10.414062 -10.21875 10.21875 -9.75 C 10.019531 -9.28125 9.800781 -8.925781 9.5625 -8.6875 C 9.332031 -8.457031 9.164062 -8.34375 9.0625 -8.34375 C 8.957031 -8.351562 8.847656 -8.40625 8.734375 -8.5 C 8.628906 -8.601562 8.410156 -8.710938 8.078125 -8.828125 C 7.753906 -8.941406 7.4375 -9.003906 7.125 -9.015625 C 6.382812 -9.046875 5.773438 -8.828125 5.296875 -8.359375 C 4.816406 -7.898438 4.554688 -7.171875 4.515625 -6.171875 C 4.472656 -5.171875 4.675781 -4.398438 5.125 -3.859375 C 5.582031 -3.316406 6.117188 -3.035156 6.734375 -3.015625 C 7.347656 -2.992188 7.664062 -3.140625 7.6875 -3.453125 Z M 7.6875 -3.453125 "/></g></g></g><g fill="#000000" fill-opacity="1"><g transform="translate(173.264994, 224.866953)"><g><path d="M 6.859375 -7.4375 C 7.085938 -7.425781 7.195312 -7.003906 7.1875 -6.171875 C 7.175781 -5.921875 7.140625 -5.625 7.078125 -5.28125 C 7.023438 -4.945312 6.925781 -4.78125 6.78125 -4.78125 L 4.5 -4.828125 L 4.46875 -3.046875 L 7.765625 -2.984375 C 7.972656 -2.972656 8.109375 -2.703125 8.171875 -2.171875 C 8.191406 -1.941406 8.195312 -1.695312 8.1875 -1.4375 C 8.1875 -1.1875 8.144531 -0.859375 8.0625 -0.453125 C 7.988281 -0.046875 7.867188 0.148438 7.703125 0.140625 L 1.578125 0.03125 C 1.117188 0.0195312 0.894531 -0.171875 0.90625 -0.546875 L 1.125 -12.0625 C 1.125 -12.375 1.265625 -12.523438 1.546875 -12.515625 L 7.953125 -12.40625 C 8.203125 -12.394531 8.316406 -11.859375 8.296875 -10.796875 C 8.273438 -9.742188 8.140625 -9.222656 7.890625 -9.234375 L 4.578125 -9.296875 L 4.546875 -7.484375 Z M 6.859375 -7.4375 "/></g></g></g><g fill="#000000" fill-opacity="1"><g transform="translate(182.66138, 225.023221)"><g/></g></g><g fill="#000000" fill-opacity="1"><g transform="translate(186.601476, 225.065794)"><g><path d="M 5.90625 -12.75 C 6.78125 -12.757812 7.546875 -12.644531 8.203125 -12.40625 C 8.867188 -12.164062 9.203125 -11.835938 9.203125 -11.421875 C 9.210938 -11.003906 9.0625 -10.488281 8.75 -9.875 C 8.445312 -9.257812 8.1875 -8.945312 7.96875 -8.9375 C 7.90625 -8.9375 7.832031 -8.96875 7.75 -9.03125 C 7.675781 -9.09375 7.5 -9.160156 7.21875 -9.234375 C 6.9375 -9.316406 6.695312 -9.359375 6.5 -9.359375 C 5.800781 -9.347656 5.242188 -9.09375 4.828125 -8.59375 C 4.410156 -8.101562 4.203125 -7.351562 4.203125 -6.34375 C 4.210938 -5.332031 4.4375 -4.582031 4.875 -4.09375 C 5.320312 -3.613281 5.878906 -3.378906 6.546875 -3.390625 C 6.816406 -3.390625 7.125 -3.425781 7.46875 -3.5 C 7.8125 -3.582031 8.050781 -3.703125 8.1875 -3.859375 C 8.21875 -3.878906 8.269531 -3.890625 8.34375 -3.890625 C 8.414062 -3.890625 8.546875 -3.753906 8.734375 -3.484375 C 8.929688 -3.222656 9.113281 -2.875 9.28125 -2.4375 C 9.457031 -2 9.546875 -1.660156 9.546875 -1.421875 C 9.554688 -0.953125 9.203125 -0.578125 8.484375 -0.296875 C 7.773438 -0.0234375 6.929688 0.113281 5.953125 0.125 C 4.367188 0.132812 3.0625 -0.40625 2.03125 -1.5 C 1.007812 -2.601562 0.488281 -4.164062 0.46875 -6.1875 C 0.457031 -8.21875 0.96875 -9.816406 2 -10.984375 C 3.039062 -12.148438 4.34375 -12.738281 5.90625 -12.75 Z M 5.90625 -12.75 "/></g></g></g><g fill="#000000" fill-opacity="1"><g transform="translate(197.275982, 224.975254)"><g><path d="M 9.3125 -0.265625 C 8.28125 -0.234375 7.71875 -0.378906 7.625 -0.703125 L 6.953125 -3 L 4.09375 -2.90625 L 3.65625 -0.671875 C 3.59375 -0.296875 3.023438 -0.09375 1.953125 -0.0625 C 1.378906 -0.0390625 0.953125 -0.0625 0.671875 -0.125 C 0.398438 -0.1875 0.257812 -0.234375 0.25 -0.265625 L 3.046875 -12.5 C 3.046875 -12.59375 3.863281 -12.664062 5.5 -12.71875 C 7.144531 -12.769531 7.96875 -12.75 7.96875 -12.65625 L 11.453125 -0.59375 C 11.453125 -0.507812 11.175781 -0.4375 10.625 -0.375 C 10.070312 -0.3125 9.632812 -0.273438 9.3125 -0.265625 Z M 4.484375 -5.1875 L 6.375 -5.25 L 5.4375 -8.953125 L 5.328125 -8.9375 Z M 4.484375 -5.1875 "/></g></g></g><g fill="#000000" fill-opacity="1"><g transform="translate(209.631581, 224.571081)"><g><path d="M 4.296875 -0.484375 C 4.304688 -0.296875 3.742188 -0.171875 2.609375 -0.109375 C 1.460938 -0.046875 0.882812 -0.101562 0.875 -0.28125 L 0.234375 -11.953125 C 0.210938 -12.367188 0.425781 -12.585938 0.875 -12.609375 L 4.296875 -12.8125 C 7.429688 -12.976562 9.066406 -11.835938 9.203125 -9.390625 C 9.242188 -8.648438 9.132812 -7.96875 8.875 -7.34375 C 8.613281 -6.726562 8.234375 -6.222656 7.734375 -5.828125 L 10.203125 -2.21875 C 10.117188 -1.925781 9.828125 -1.578125 9.328125 -1.171875 C 8.628906 -0.617188 8.046875 -0.328125 7.578125 -0.296875 C 7.117188 -0.273438 6.769531 -0.425781 6.53125 -0.75 L 4.640625 -4.578125 L 4.078125 -4.546875 Z M 3.796875 -9.59375 L 3.953125 -6.90625 L 4.046875 -6.90625 C 5.171875 -6.96875 5.707031 -7.46875 5.65625 -8.40625 C 5.625 -8.84375 5.492188 -9.160156 5.265625 -9.359375 C 5.035156 -9.554688 4.675781 -9.644531 4.1875 -9.625 Z M 3.796875 -9.59375 "/></g></g></g><g fill="#000000" fill-opacity="1"><g transform="translate(220.793631, 223.942532)"><g><path d="M 6.140625 -8.046875 C 6.367188 -8.066406 6.515625 -7.660156 6.578125 -6.828125 C 6.585938 -6.578125 6.578125 -6.273438 6.546875 -5.921875 C 6.523438 -5.578125 6.441406 -5.398438 6.296875 -5.390625 L 4.015625 -5.21875 L 4.15625 -3.4375 L 7.453125 -3.6875 C 7.660156 -3.707031 7.820312 -3.457031 7.9375 -2.9375 C 7.976562 -2.707031 8.007812 -2.460938 8.03125 -2.203125 C 8.050781 -1.953125 8.039062 -1.617188 8 -1.203125 C 7.957031 -0.796875 7.851562 -0.585938 7.6875 -0.578125 L 1.578125 -0.125 C 1.117188 -0.0820312 0.875 -0.25 0.84375 -0.625 L -0.015625 -12.109375 C -0.0351562 -12.421875 0.09375 -12.585938 0.375 -12.609375 L 6.765625 -13.09375 C 7.015625 -13.113281 7.175781 -12.59375 7.25 -11.53125 C 7.332031 -10.476562 7.25 -9.941406 7 -9.921875 L 3.6875 -9.671875 L 3.828125 -7.875 Z M 6.140625 -8.046875 "/></g></g></g><g fill="#000000" fill-opacity="1"><g transform="translate(230.197554, 223.226901)"><g><path d="M 5.984375 -8.15625 C 6.210938 -8.175781 6.363281 -7.769531 6.4375 -6.9375 C 6.457031 -6.6875 6.457031 -6.390625 6.4375 -6.046875 C 6.425781 -5.710938 6.347656 -5.535156 6.203125 -5.515625 L 3.9375 -5.296875 L 4.09375 -3.515625 L 7.375 -3.828125 C 7.582031 -3.847656 7.75 -3.597656 7.875 -3.078125 C 7.925781 -2.847656 7.960938 -2.609375 7.984375 -2.359375 C 8.015625 -2.109375 8.007812 -1.773438 7.96875 -1.359375 C 7.9375 -0.953125 7.835938 -0.738281 7.671875 -0.71875 L 1.578125 -0.140625 C 1.117188 -0.0976562 0.875 -0.265625 0.84375 -0.640625 L -0.25 -12.109375 C -0.269531 -12.410156 -0.140625 -12.578125 0.140625 -12.609375 L 6.515625 -13.203125 C 6.765625 -13.234375 6.9375 -12.722656 7.03125 -11.671875 C 7.132812 -10.617188 7.0625 -10.078125 6.8125 -10.046875 L 3.515625 -9.734375 L 3.6875 -7.9375 Z M 5.984375 -8.15625 "/></g></g></g><g fill="#000000" fill-opacity="1"><g transform="translate(239.597884, 222.342457)"><g><path d="M 4.25 -0.75 C 4.269531 -0.5625 3.71875 -0.398438 2.59375 -0.265625 C 1.457031 -0.140625 0.878906 -0.164062 0.859375 -0.34375 L -0.46875 -11.953125 C -0.519531 -12.367188 -0.328125 -12.597656 0.109375 -12.640625 L 3.515625 -13.03125 C 6.640625 -13.394531 8.34375 -12.359375 8.625 -9.921875 C 8.707031 -9.191406 8.632812 -8.507812 8.40625 -7.875 C 8.1875 -7.25 7.84375 -6.722656 7.375 -6.296875 L 10.0625 -2.8125 C 9.988281 -2.507812 9.710938 -2.148438 9.234375 -1.734375 C 8.585938 -1.140625 8.03125 -0.816406 7.5625 -0.765625 C 7.101562 -0.710938 6.738281 -0.835938 6.46875 -1.140625 L 4.34375 -4.84375 L 3.78125 -4.78125 Z M 3.203125 -9.8125 L 3.515625 -7.140625 L 3.609375 -7.140625 C 4.734375 -7.273438 5.242188 -7.8125 5.140625 -8.75 C 5.085938 -9.175781 4.941406 -9.476562 4.703125 -9.65625 C 4.460938 -9.84375 4.09375 -9.90625 3.59375 -9.84375 Z M 3.203125 -9.8125 "/></g></g></g><g fill="#000000" fill-opacity="1"><g transform="translate(250.707159, 221.052288)"><g><path d="M 0.75 -4.515625 C 1 -4.378906 1.421875 -4.191406 2.015625 -3.953125 C 2.617188 -3.710938 3.171875 -3.625 3.671875 -3.6875 C 4.171875 -3.757812 4.390625 -3.992188 4.328125 -4.390625 C 4.304688 -4.566406 4.21875 -4.710938 4.0625 -4.828125 C 3.90625 -4.941406 3.625 -5.0625 3.21875 -5.1875 C 2.8125 -5.320312 2.503906 -5.425781 2.296875 -5.5 C 2.085938 -5.570312 1.8125 -5.703125 1.46875 -5.890625 C 1.132812 -6.078125 0.867188 -6.28125 0.671875 -6.5 C 0.109375 -7.125 -0.238281 -7.953125 -0.375 -8.984375 C -0.519531 -10.023438 -0.257812 -10.957031 0.40625 -11.78125 C 1.082031 -12.601562 2.050781 -13.101562 3.3125 -13.28125 C 4.15625 -13.394531 4.953125 -13.410156 5.703125 -13.328125 C 6.453125 -13.242188 6.859375 -13.050781 6.921875 -12.75 C 6.921875 -12.71875 6.925781 -12.679688 6.9375 -12.640625 C 6.988281 -12.234375 6.925781 -11.691406 6.75 -11.015625 C 6.582031 -10.347656 6.457031 -9.972656 6.375 -9.890625 C 5.550781 -10.171875 4.835938 -10.269531 4.234375 -10.1875 C 3.640625 -10.101562 3.367188 -9.851562 3.421875 -9.4375 C 3.453125 -9.175781 3.707031 -8.972656 4.1875 -8.828125 C 4.289062 -8.796875 4.429688 -8.75 4.609375 -8.6875 C 4.796875 -8.632812 5.015625 -8.566406 5.265625 -8.484375 C 5.515625 -8.410156 5.785156 -8.300781 6.078125 -8.15625 C 6.367188 -8.019531 6.6875 -7.832031 7.03125 -7.59375 C 7.738281 -7.09375 8.15625 -6.359375 8.28125 -5.390625 C 8.457031 -4.117188 8.25 -3.03125 7.65625 -2.125 C 7.070312 -1.226562 6.050781 -0.671875 4.59375 -0.453125 C 3.882812 -0.359375 3.238281 -0.328125 2.65625 -0.359375 C 2.070312 -0.398438 1.539062 -0.5625 1.0625 -0.84375 C 0.582031 -1.125 0.3125 -1.503906 0.25 -1.984375 C 0.1875 -2.472656 0.207031 -2.972656 0.3125 -3.484375 C 0.425781 -3.992188 0.570312 -4.335938 0.75 -4.515625 Z M 0.75 -4.515625 "/></g></g></g></svg>